<?xml version="1.0" standalone="no"?>
<!DOCTYPE svg PUBLIC "-//W3C//DTD SVG 20010904//EN"
 "http://www.w3.org/TR/2001/REC-SVG-20010904/DTD/svg10.dtd">
<svg version="1.0" xmlns="http://www.w3.org/2000/svg"
 width="400.000000pt" height="400.000000pt" viewBox="0 0 400.000000 400.000000"
 preserveAspectRatio="xMidYMid meet">

<g transform="translate(0.000000,400.000000) scale(0.100000,-0.100000)"
fill="#000000" stroke="none">
<path d="M703 3271 c-54 -14 -96 -45 -120 -90 l-23 -44 0 -1135 c0 -1133 0
-1136 21 -1179 15 -30 35 -52 67 -71 l47 -27 1305 0 1305 0 44 25 c30 17 52
40 68 69 l23 44 0 1137 0 1137 -23 44 c-16 29 -38 52 -68 69 l-44 25 -1285 2
c-707 0 -1299 -2 -1317 -6z m2547 -1471 l0 -890 -1250 0 -1250 0 0 890 0 890
1250 0 1250 0 0 -890z"/>
<path d="M1472 2404 c-35 -9 -65 -21 -67 -27 -8 -23 -51 -437 -46 -437 3 0 40
7 81 16 135 29 287 0 442 -84 37 -20 69 -34 71 -31 2 2 15 102 29 222 l24 217
-70 39 c-167 91 -323 120 -464 85z"/>
<path d="M2086 2208 c-3 -13 -15 -113 -26 -222 -17 -162 -19 -201 -8 -208 7
-4 49 -23 93 -40 74 -30 88 -33 195 -33 106 0 121 3 196 33 44 17 88 38 98 45
14 11 22 52 43 226 13 117 22 215 20 217 -2 2 -30 -7 -62 -21 -163 -72 -324
-72 -484 0 -29 14 -55 25 -57 25 -2 0 -6 -10 -8 -22z"/>
<path d="M1408 1858 c-38 -12 -68 -26 -68 -33 0 -6 -9 -92 -20 -191 -11 -98
-20 -193 -20 -211 l0 -32 43 15 c23 9 78 18 122 21 107 7 194 -14 323 -79 56
-28 104 -49 106 -47 2 2 15 102 28 222 l24 217 -120 59 c-67 33 -142 64 -168
70 -72 17 -175 12 -250 -11z"/>
<path d="M2026 1668 c-5 -24 -46 -394 -46 -415 0 -6 33 -25 73 -41 168 -69
296 -69 464 0 71 29 72 30 78 71 5 39 45 392 45 401 0 2 -27 -7 -61 -21 -96
-39 -193 -56 -280 -49 -74 6 -175 33 -231 62 -35 18 -37 18 -42 -8z"/>
</g>
</svg>
